<?xml version="1.0" standalone="no"?>
<!DOCTYPE svg PUBLIC "-//W3C//DTD SVG 20010904//EN"
 "http://www.w3.org/TR/2001/REC-SVG-20010904/DTD/svg10.dtd">
<svg version="1.0" xmlns="http://www.w3.org/2000/svg"
 width="512.000000pt" height="512.000000pt" viewBox="0 0 512.000000 512.000000"
 preserveAspectRatio="xMidYMid meet">
<metadata>
Created by potrace 1.11, written by Peter Selinger 2001-2013
</metadata>
<g transform="translate(0.000000,512.000000) scale(0.100000,-0.100000)"
fill="#000000" stroke="none">
<path d="M341 3878 c14 -10 6 -37 -68 -232 -47 -122 -92 -240 -100 -264 -8
-24 -22 -46 -29 -49 -37 -14 -4 -23 86 -23 60 0 100 4 100 10 0 6 -4 10 -10
10 -5 0 -1 21 9 48 l19 47 126 3 126 3 21 -48 c13 -30 16 -49 10 -51 -6 -2
-11 -8 -11 -13 0 -5 50 -9 110 -9 61 0 110 3 110 6 0 3 -6 11 -13 18 -23 24
-222 529 -209 534 7 2 12 8 12 13 0 5 -66 9 -152 8 -114 0 -149 -3 -137 -11z
m177 -220 c23 -57 44 -111 48 -120 6 -16 -3 -18 -91 -18 -73 0 -96 3 -93 13
48 135 84 227 88 227 3 0 25 -46 48 -102z"/>
<path d="M970 3880 c0 -5 7 -10 15 -10 13 0 15 -26 15 -173 0 -242 21 -302
123 -354 44 -22 69 -27 158 -31 127 -5 200 12 256 61 65 57 73 87 73 298 0
182 1 187 23 202 20 15 13 16 -103 16 -106 0 -122 -2 -107 -13 15 -12 17 -33
17 -188 0 -162 -2 -177 -21 -201 -53 -69 -211 -53 -238 24 -6 18 -11 100 -11
191 0 132 3 160 15 164 40 16 5 24 -100 24 -70 0 -115 -4 -115 -10z"/>
<path d="M1820 3881 c0 -6 7 -11 15 -11 13 0 15 -37 15 -270 0 -233 -2 -270
-15 -270 -8 0 -15 -5 -15 -10 0 -8 84 -10 263 -8 239 3 266 5 302 23 57 28 85
75 85 141 0 60 -27 102 -80 124 l-31 13 29 18 c44 26 62 58 62 109 0 55 -27
102 -72 127 -29 16 -65 18 -295 21 -181 2 -263 0 -263 -7z m451 -118 c6 -6 12
-23 12 -38 0 -15 -6 -32 -12 -38 -6 -6 -61 -13 -131 -15 l-120 -4 0 57 0 57
120 -4 c70 -2 125 -9 131 -15z m-9 -214 c41 -11 55 -38 44 -84 -8 -33 -56 -45
-183 -45 l-103 0 0 70 0 70 103 0 c56 0 119 -5 139 -11z"/>
<path d="M2620 3880 c0 -5 7 -10 15 -10 13 0 15 -26 15 -173 0 -242 21 -302
123 -354 44 -22 69 -27 158 -31 127 -5 200 12 256 61 65 57 73 87 73 298 0
182 1 187 23 202 20 15 13 16 -103 16 -106 0 -122 -2 -107 -13 15 -12 17 -33
17 -188 0 -162 -2 -177 -21 -201 -53 -69 -211 -53 -238 24 -6 18 -11 100 -11
191 0 132 3 160 15 164 40 16 5 24 -100 24 -70 0 -115 -4 -115 -10z"/>
<path d="M3480 3881 c0 -5 7 -11 15 -15 13 -5 15 -44 15 -266 0 -222 -2 -261
-15 -266 -40 -16 -5 -24 100 -24 70 0 115 4 115 10 0 6 -7 10 -15 10 -12 0
-15 18 -15 100 l0 100 50 0 49 0 66 -92 c65 -91 74 -108 55 -108 -5 0 -10 -4
-10 -10 0 -6 45 -10 115 -10 103 0 140 8 102 23 -8 3 -44 47 -80 98 l-66 92
48 22 c87 41 123 115 102 210 -14 63 -56 107 -118 124 -46 13 -513 15 -513 2z
m446 -146 c8 -10 14 -26 14 -35 0 -9 -6 -25 -14 -35 -12 -17 -30 -20 -130 -23
l-116 -4 0 62 0 62 116 -4 c100 -3 118 -6 130 -23z"/>
<path d="M4270 3881 c0 -5 7 -11 15 -15 13 -5 15 -44 15 -266 0 -222 -2 -261
-15 -266 -39 -15 -6 -24 90 -24 63 0 105 4 105 10 0 6 -7 10 -15 10 -13 0 -15
26 -15 176 l0 176 48 -53 c26 -30 97 -107 157 -173 64 -69 105 -121 98 -123
-7 -3 -13 -9 -13 -14 0 -5 47 -9 105 -9 63 0 105 4 105 10 0 6 -7 10 -15 10
-13 0 -15 37 -15 270 0 233 2 270 15 270 8 0 15 5 15 10 0 6 -42 10 -107 10
-93 -1 -105 -3 -90 -14 16 -12 17 -29 15 -160 l-3 -146 -101 113 c-164 181
-160 175 -138 192 17 13 3 14 -118 15 -76 0 -138 -4 -138 -9z"/>
<path d="M2530 3170 c0 -6 -70 -10 -187 -11 -104 0 -182 -3 -175 -6 9 -3 12
-49 12 -178 0 -129 -3 -175 -12 -178 -7 -3 69 -6 169 -6 100 -1 188 -4 197 -7
13 -5 16 3 16 50 0 31 -4 56 -10 56 -5 0 -10 -4 -10 -10 0 -6 -45 -10 -115
-10 l-115 0 0 35 0 35 70 0 c40 0 70 -4 70 -10 0 -5 5 -10 10 -10 6 0 10 27
10 60 0 33 -4 60 -10 60 -5 0 -10 -4 -10 -10 0 -6 -30 -10 -70 -10 l-70 0 0
30 0 30 115 0 c70 0 115 -4 115 -10 0 -5 5 -10 10 -10 6 0 10 27 10 60 0 33
-4 60 -10 60 -5 0 -10 -4 -10 -10z"/>
<path d="M2600 3120 c0 -50 3 -61 12 -52 7 7 38 12 70 12 l58 0 0 -139 c0
-102 -3 -141 -12 -144 -7 -3 23 -6 67 -6 61 -1 76 2 67 11 -8 8 -12 55 -12
145 l0 133 65 0 c37 0 65 -4 65 -10 0 -5 5 -10 10 -10 6 0 10 27 10 60 0 33
-4 60 -10 60 -5 0 -10 -4 -10 -10 0 -15 -353 -13 -368 2 -9 9 -12 -2 -12 -52z"/>
<path d="M1245 3156 c-41 -18 -73 -56 -81 -92 -4 -24 0 -37 20 -61 28 -33 70
-47 181 -59 71 -8 96 -19 89 -39 -9 -23 -71 -38 -126 -31 -61 8 -118 35 -118
55 0 9 -3 11 -8 6 -9 -11 -52 -113 -52 -124 0 -10 70 -15 200 -16 91 0 122 4
147 18 38 20 63 63 63 107 0 71 -41 97 -184 116 -54 7 -100 15 -103 18 -13 13
9 36 41 42 46 8 158 -12 172 -31 17 -23 21 -19 50 36 20 41 22 50 10 46 -9 -4
-42 0 -73 8 -70 18 -188 19 -228 1z"/>
<path d="M148 3153 c17 -7 17 -349 0 -356 -7 -3 63 -6 155 -6 226 -1 262 15
255 112 -2 34 -9 45 -37 64 -19 13 -29 23 -22 23 22 0 51 40 51 71 0 85 -36
99 -247 98 -92 0 -162 -3 -155 -6z m270 -69 c14 -4 22 -14 22 -29 0 -28 -22
-35 -107 -35 l-63 0 0 35 0 35 63 0 c34 0 72 -3 85 -6z m32 -154 c5 -8 10 -19
10 -25 0 -31 -21 -40 -105 -44 l-85 -3 0 47 0 47 85 -3 c62 -3 88 -8 95 -19z"/>
<path d="M775 3151 c4 -8 -101 -296 -126 -343 -9 -16 -3 -18 55 -18 50 0 64 3
60 13 -3 8 0 26 5 40 10 26 13 27 90 27 78 0 79 0 91 -29 6 -17 9 -35 5 -40
-4 -8 19 -11 71 -11 72 0 76 1 62 18 -23 26 -140 322 -134 338 4 11 -12 14
-90 14 -56 0 -93 -4 -89 -9z m110 -131 c15 -36 29 -71 32 -77 4 -10 -11 -13
-57 -13 -45 0 -61 3 -58 13 3 6 16 42 29 79 13 37 24 66 25 65 1 -1 14 -31 29
-67z"/>
<path d="M1648 3153 c9 -3 12 -49 12 -178 0 -129 -3 -175 -12 -178 -7 -3 25
-5 72 -5 47 0 79 2 73 5 -8 3 -13 23 -13 52 0 39 5 52 30 76 34 33 33 34 89
-54 31 -48 38 -67 29 -73 -7 -4 27 -8 76 -8 l89 0 -20 23 c-11 12 -49 64 -83
116 l-63 95 34 29 c19 16 56 47 82 68 l49 39 -96 0 c-74 0 -94 -3 -90 -13 2
-7 -24 -38 -61 -71 l-65 -57 0 65 c0 42 4 66 13 69 6 3 -26 5 -73 5 -47 0 -79
-2 -72 -5z"/>
<path d="M3068 3153 c9 -3 12 -49 12 -178 0 -129 -3 -175 -12 -178 -7 -3 63
-6 155 -6 226 -1 262 15 255 112 -2 34 -9 45 -37 64 -19 13 -29 23 -22 23 22
0 51 40 51 71 0 85 -36 99 -247 98 -92 0 -162 -3 -155 -6z m270 -69 c14 -4 22
-14 22 -29 0 -28 -22 -35 -107 -35 l-63 0 0 35 0 35 63 0 c34 0 72 -3 85 -6z
m32 -154 c5 -8 10 -19 10 -25 0 -31 -21 -40 -105 -44 l-85 -3 0 47 0 47 85 -3
c62 -3 88 -8 95 -19z"/>
<path d="M3695 3151 c4 -8 -101 -296 -126 -343 -9 -16 -3 -18 55 -18 50 0 64
3 60 13 -3 8 0 26 5 40 10 26 13 27 90 27 78 0 79 0 91 -29 6 -17 9 -35 5 -40
-4 -8 19 -11 71 -11 72 0 76 1 62 18 -23 26 -140 322 -134 338 4 11 -12 14
-90 14 -56 0 -93 -4 -89 -9z m110 -131 c15 -36 29 -71 32 -77 4 -10 -11 -13
-57 -13 -45 0 -61 3 -58 13 3 6 16 42 29 79 13 37 24 66 25 65 1 -1 14 -31 29
-67z"/>
<path d="M4098 3153 c9 -3 12 -49 12 -178 0 -129 -3 -175 -12 -178 -7 -3 73
-6 178 -6 133 -1 194 -5 202 -13 9 -9 12 2 12 52 0 50 -3 61 -12 52 -8 -8 -52
-12 -130 -12 l-118 0 0 139 c0 102 3 141 13 144 6 3 -26 5 -73 5 -47 0 -79 -2
-72 -5z"/>
<path d="M4568 3153 c9 -3 12 -49 12 -178 0 -129 -3 -175 -12 -178 -7 -3 73
-6 178 -6 133 -1 194 -5 202 -13 9 -9 12 2 12 52 0 50 -3 61 -12 52 -8 -8 -52
-12 -130 -12 l-118 0 0 139 c0 102 3 141 13 144 6 3 -26 5 -73 5 -47 0 -79 -2
-72 -5z"/>
<path d="M430 2606 c-163 -44 -270 -172 -270 -324 0 -75 14 -121 53 -178 47
-67 122 -116 272 -174 200 -79 245 -114 245 -194 0 -41 -28 -78 -77 -101 -49
-24 -168 -24 -245 -1 l-58 17 0 79 0 80 -95 0 -95 0 0 -161 0 -160 58 -26
c177 -78 395 -85 549 -18 114 51 189 157 200 284 15 178 -72 279 -333 386
-192 78 -233 110 -234 181 0 43 18 67 70 95 27 14 170 15 230 1 l35 -8 3 -87
3 -87 94 0 95 0 0 174 0 174 -62 21 c-35 11 -92 25 -128 31 -87 13 -254 12
-310 -4z"/>
<path d="M4460 2606 c-163 -44 -270 -172 -270 -324 0 -75 14 -121 53 -178 47
-67 122 -116 272 -174 200 -79 245 -114 245 -194 0 -41 -28 -78 -77 -101 -49
-24 -168 -24 -245 -1 l-58 17 0 79 0 80 -95 0 -95 0 0 -161 0 -160 58 -26
c177 -78 395 -85 549 -18 114 51 189 157 200 284 15 178 -72 279 -333 386
-192 78 -233 110 -234 181 0 43 18 67 70 95 27 14 170 15 230 1 l35 -8 3 -87
3 -87 94 0 95 0 0 174 0 174 -62 21 c-35 11 -92 25 -128 31 -87 13 -254 12
-310 -4z"/>
<path d="M1090 2405 l0 -195 95 0 95 0 0 105 0 105 80 0 80 0 0 -410 0 -410
-100 0 -100 0 0 -90 0 -90 310 0 310 0 0 90 0 90 -95 0 -95 0 0 410 0 411 78
-3 77 -3 3 -102 3 -103 94 0 95 0 0 195 0 195 -465 0 -465 0 0 -195z"/>
<path d="M2260 2024 c-102 -317 -186 -582 -188 -590 -3 -11 18 -14 115 -14
l118 0 39 130 40 130 172 0 173 0 41 -130 41 -130 125 0 c97 0 125 3 122 13
-3 6 -88 272 -189 589 l-184 578 -120 0 -120 0 -185 -576z m360 49 c30 -102
56 -192 58 -200 3 -10 -22 -13 -118 -13 -93 0 -121 3 -118 13 3 6 29 96 59
199 30 104 56 188 59 188 3 0 30 -84 60 -187z"/>
<path d="M3110 2405 l0 -195 95 0 95 0 0 105 0 105 80 0 80 0 0 -410 0 -410
-100 0 -100 0 0 -90 0 -90 310 0 310 0 0 90 0 90 -95 0 -95 0 0 410 0 411 78
-3 77 -3 3 -102 3 -103 94 0 95 0 0 195 0 195 -465 0 -465 0 0 -195z"/>
</g>
</svg>
